<svg width="1531" height="193" viewBox="0 0 1531 193" fill="none" xmlns="http://www.w3.org/2000/svg">
<path d="M1456 60C1456 54.4772 1460.48 50 1466 50L1513.94 50C1517.07 50 1520.08 51.4349 1521.63 54.1586C1532.93 73.9866 1535.25 113.259 1521.66 138.435C1520.08 141.368 1516.91 143 1513.58 143L1466 143C1460.48 143 1456 138.523 1456 133L1456 60Z" fill="url(#paint0_linear_8_2)"/>
<path d="M75 60C75 54.4772 70.5228 50 65 50L17.0634 50C13.9289 50 10.9186 51.4349 9.36725 54.1586C-1.92664 73.9866 -4.25305 113.259 9.3383 138.435C10.9216 141.368 14.0864 143 17.4195 143L65 143C70.5229 143 75 138.523 75 133L75 60Z" fill="url(#paint1_linear_8_2)"/>
<path d="M399.837 50L353.837 50C343.337 69 340.837 116.5 353.837 143L399.837 143L399.837 50Z" fill="url(#paint2_linear_8_2)"/>
<g filter="url(#filter0_d_8_2)">
<rect x="35.0002" y="15" width="337" height="163" rx="40" fill="white"/>
<rect x="44.0002" y="24" width="319" height="145" rx="31" stroke="url(#paint3_linear_8_2)" stroke-width="18"/>
</g>
<rect x="44" y="23" width="319" height="147" rx="30" stroke="white" stroke-width="10" stroke-linecap="round" stroke-dasharray="1 30"/>
<g filter="url(#filter1_d_8_2)">
<rect x="393" y="15" width="1082" height="163" rx="40" fill="white"/>
<rect x="402" y="24" width="1064" height="145" rx="31" stroke="url(#paint4_linear_8_2)" stroke-width="18"/>
</g>
<rect x="403" y="23" width="1062" height="147" rx="30" stroke="white" stroke-width="10" stroke-linecap="round" stroke-dasharray="1 30"/>
<defs>
<filter id="filter0_d_8_2" x="20.0002" y="0" width="367" height="193" filterUnits="userSpaceOnUse" color-interpolation-filters="sRGB">
<feFlood flood-opacity="0" result="BackgroundImageFix"/>
<feColorMatrix in="SourceAlpha" type="matrix" values="0 0 0 0 0 0 0 0 0 0 0 0 0 0 0 0 0 0 127 0" result="hardAlpha"/>
<feMorphology radius="5" operator="dilate" in="SourceAlpha" result="effect1_dropShadow_8_2"/>
<feOffset/>
<feGaussianBlur stdDeviation="5"/>
<feComposite in2="hardAlpha" operator="out"/>
<feColorMatrix type="matrix" values="0 0 0 0 0 0 0 0 0 0 0 0 0 0 0 0 0 0 0.25 0"/>
<feBlend mode="normal" in2="BackgroundImageFix" result="effect1_dropShadow_8_2"/>
<feBlend mode="normal" in="SourceGraphic" in2="effect1_dropShadow_8_2" result="shape"/>
</filter>
<filter id="filter1_d_8_2" x="378" y="0" width="1112" height="193" filterUnits="userSpaceOnUse" color-interpolation-filters="sRGB">
<feFlood flood-opacity="0" result="BackgroundImageFix"/>
<feColorMatrix in="SourceAlpha" type="matrix" values="0 0 0 0 0 0 0 0 0 0 0 0 0 0 0 0 0 0 127 0" result="hardAlpha"/>
<feMorphology radius="5" operator="dilate" in="SourceAlpha" result="effect1_dropShadow_8_2"/>
<feOffset/>
<feGaussianBlur stdDeviation="5"/>
<feComposite in2="hardAlpha" operator="out"/>
<feColorMatrix type="matrix" values="0 0 0 0 0 0 0 0 0 0 0 0 0 0 0 0 0 0 0.25 0"/>
<feBlend mode="normal" in2="BackgroundImageFix" result="effect1_dropShadow_8_2"/>
<feBlend mode="normal" in="SourceGraphic" in2="effect1_dropShadow_8_2" result="shape"/>
</filter>
<linearGradient id="paint0_linear_8_2" x1="1487.46" y1="50" x2="1487.46" y2="143" gradientUnits="userSpaceOnUse">
<stop stop-color="#E19400"/>
<stop offset="0.244792" stop-color="#FFE2AB"/>
<stop offset="0.53125" stop-color="#FFE155"/>
<stop offset="1" stop-color="#E19400"/>
</linearGradient>
<linearGradient id="paint1_linear_8_2" x1="43.5433" y1="50" x2="43.5433" y2="143" gradientUnits="userSpaceOnUse">
<stop stop-color="#E19400"/>
<stop offset="0.244792" stop-color="#FFE2AB"/>
<stop offset="0.53125" stop-color="#FFE155"/>
<stop offset="1" stop-color="#E19400"/>
</linearGradient>
<linearGradient id="paint2_linear_8_2" x1="376.837" y1="50" x2="376.837" y2="143" gradientUnits="userSpaceOnUse">
<stop stop-color="#E19400"/>
<stop offset="1" stop-color="#FFE155"/>
</linearGradient>
<linearGradient id="paint3_linear_8_2" x1="203.5" y1="15" x2="203.5" y2="178" gradientUnits="userSpaceOnUse">
<stop stop-color="#FFD923"/>
<stop offset="1" stop-color="#FFAE17"/>
</linearGradient>
<linearGradient id="paint4_linear_8_2" x1="934" y1="15" x2="934" y2="178" gradientUnits="userSpaceOnUse">
<stop stop-color="#FFD923"/>
<stop offset="1" stop-color="#FFAE17"/>
</linearGradient>
</defs>
</svg>
